<?xml version="1.0" encoding="utf-8"?>
<!-- Generator: Adobe Illustrator 16.0.0, SVG Export Plug-In . SVG Version: 6.00 Build 0)  -->
<!DOCTYPE svg PUBLIC "-//W3C//DTD SVG 1.0//EN" "http://www.w3.org/TR/2001/REC-SVG-20010904/DTD/svg10.dtd">
<svg version="1.0" id="Layer_1" xmlns="http://www.w3.org/2000/svg" xmlns:xlink="http://www.w3.org/1999/xlink" x="0px" y="0px"
	 width="400px" height="86px" viewBox="0 0 400 86" enable-background="new 0 0 400 86" xml:space="preserve">
<path fill="#FFFFFF" d="M47.502,6.012c-19.889,0-36,16.118-36,36.007c0,19.88,16.111,36.008,36,36.008
	c-8.498,0-15.386-6.897-15.386-15.392c0-8.491,6.888-15.38,15.386-15.38s15.387,6.889,15.387,15.38
	c0,8.495-6.889,15.392-15.387,15.392c19.889,0,36-16.127,36-36.008C83.502,22.13,67.391,6.012,47.502,6.012z"/>
<g>
	<path fill="#FFFFFF" d="M145.548,37.7c-0.279-7.254-5.859-10.509-12.555-10.509c-5.208,0-11.347,2.046-11.347,8.277
		c0,5.208,5.952,7.068,9.952,8.091l7.812,1.767c6.696,1.023,13.671,4.929,13.671,13.299c0,10.417-10.323,14.416-19.251,14.416
		c-11.16,0-18.787-5.208-19.716-16.926h5.859c0.465,7.905,6.324,11.997,14.136,11.997c5.487,0,13.113-2.418,13.113-9.114
		c0-5.58-5.208-7.44-10.509-8.742l-7.533-1.674c-7.626-2.046-13.392-4.65-13.392-12.834c0-9.765,9.579-13.485,18.042-13.485
		c9.579,0,17.206,5.022,17.577,15.438H145.548z"/>
	<path fill="#FFFFFF" d="M164.984,49.232c0.093,8.556,4.557,18.879,15.811,18.879c8.556,0,13.207-5.022,15.066-12.276h5.859
		c-2.511,10.881-8.835,17.206-20.926,17.206c-15.252,0-21.669-11.718-21.669-25.39c0-12.648,6.417-25.39,21.669-25.39
		c15.438,0,21.577,13.485,21.112,26.971H164.984z M196.047,44.303c-0.279-8.835-5.766-17.112-15.252-17.112
		c-9.579,0-14.88,8.37-15.811,17.112H196.047z"/>
	<path fill="#FFFFFF" d="M209.811,23.656h5.394V34.91h0.186c2.976-7.719,9.486-12.276,18.136-11.904v5.859
		c-10.603-0.558-17.856,7.254-17.856,17.206v25.576h-5.859V23.656z"/>
	<path fill="#FFFFFF" d="M240.873,49.232c0.093,8.556,4.557,18.879,15.811,18.879c8.556,0,13.207-5.022,15.066-12.276h5.859
		c-2.511,10.881-8.835,17.206-20.925,17.206c-15.252,0-21.669-11.718-21.669-25.39c0-12.648,6.417-25.39,21.669-25.39
		c15.438,0,21.577,13.485,21.112,26.971H240.873z M271.936,44.303c-0.279-8.835-5.766-17.112-15.252-17.112
		c-9.579,0-14.88,8.37-15.811,17.112H271.936z"/>
	<path fill="#FFFFFF" d="M285.606,23.656h5.859v8.277h0.186c2.139-5.766,8.557-9.672,15.346-9.672
		c13.485,0,17.577,7.068,17.577,18.507v30.877h-5.859V41.699c0-8.277-2.697-14.508-12.183-14.508
		c-9.301,0-14.881,7.068-15.066,16.461v27.994h-5.859V23.656z"/>
	<path fill="#FFFFFF" d="M378.606,47.651c0,13.764-7.998,25.39-22.692,25.39s-22.692-11.625-22.692-25.39s7.998-25.39,22.692-25.39
		S378.606,33.887,378.606,47.651z M339.081,47.651c0,10.23,5.58,20.46,16.833,20.46c11.254,0,16.834-10.23,16.834-20.46
		c0-10.23-5.58-20.46-16.834-20.46C344.661,27.19,339.081,37.421,339.081,47.651z"/>
</g>
</svg>
